<svg xmlns="http://www.w3.org/2000/svg" xmlns:xlink="http://www.w3.org/1999/xlink" width="994" zoomAndPan="magnify" viewBox="0 0 745.5 641.999998" height="856" preserveAspectRatio="xMidYMid meet" version="1.0"><path fill="#ffffff" d="M 292.269531 224.292969 C 292.269531 224.292969 289.746094 112.003906 337.707031 112.003906 C 385.671875 112.003906 396.875 210.785156 396.875 210.785156 C 396.875 210.785156 405.082031 166.625 433.480469 165.363281 C 461.878906 164.101562 468.1875 198.800781 468.1875 198.800781 C 468.1875 198.800781 482.320312 102.339844 540.789062 97.449219 C 617.742188 91.015625 620.910156 179.242188 620.910156 179.242188 L 586.199219 215.832031 C 586.199219 215.832031 678.46875 205.304688 672.71875 311.3125 C 667.738281 403.074219 569.640625 393.214844 569.640625 393.214844 C 569.640625 393.214844 614.265625 444.957031 587.9375 462.355469 C 561.609375 479.75 527.25 427.5625 527.25 427.5625 C 527.25 427.5625 537.960938 486.886719 491.550781 463.691406 C 445.140625 440.496094 471.46875 469.046875 471.46875 469.046875 C 471.46875 469.046875 442.019531 562.273438 359.019531 543.09375 C 276.019531 523.914062 318.855469 411.949219 318.855469 411.949219 C 318.855469 411.949219 285.527344 519.910156 220.683594 499.378906 C 161.65625 480.691406 226.652344 366.214844 226.652344 366.214844 C 201.5 346.761719 66.855469 156.472656 292.269531 224.292969 Z M 292.269531 224.292969 " fill-opacity="1" fill-rule="nonzero"/><path fill="#000000" d="M 552.207031 94.074219 C 547.75 93.75 543.027344 93.777344 538.019531 94.195312 C 522.292969 95.507812 509.460938 103.066406 499.402344 113.316406 C 489.347656 123.566406 481.90625 136.496094 476.355469 149.160156 C 470.511719 162.488281 466.933594 174.976562 464.683594 184.417969 C 464.019531 183.058594 463.433594 181.722656 462.601562 180.339844 C 457.027344 171.082031 446.761719 161.394531 430.871094 162.097656 C 414.554688 162.824219 404.316406 175.753906 398.410156 187.558594 C 397.328125 189.722656 396.5 191.808594 395.664062 193.886719 C 393.820312 184.640625 391.023438 172.863281 386.75 160.867188 C 382.25 148.242188 376.226562 135.5 367.925781 125.640625 C 359.628906 115.78125 348.695312 108.734375 335.285156 108.734375 C 321.679688 108.734375 311.390625 116.988281 304.4375 128.238281 C 297.480469 139.488281 293.257812 153.921875 290.523438 168.234375 C 285.902344 192.425781 285.789062 212.875 285.828125 219.738281 C 232.269531 204.1875 199.070312 203.09375 179.230469 212.230469 C 168.984375 216.949219 162.460938 224.6875 159.464844 233.84375 C 156.472656 242.996094 156.777344 253.394531 159.03125 264.226562 C 163.53125 285.894531 175.898438 309.628906 188.703125 329.398438 C 200.25 347.226562 211.53125 361.101562 219.144531 367.960938 C 216.875 372.042969 203.472656 396.433594 195.140625 425.511719 C 190.613281 441.308594 187.835938 457.820312 190.214844 472.21875 C 192.59375 486.617188 200.890625 499.070312 217.011719 504.175781 C 234.316406 509.652344 250.023438 506.496094 263.058594 498.792969 C 276.09375 491.089844 286.660156 479.058594 295.089844 466.527344 C 297.789062 462.519531 300.195312 458.472656 302.460938 454.464844 C 301.816406 459.851562 301.320312 465.40625 301.257812 471.144531 C 301.085938 486.808594 303.546875 503.335938 311.730469 517.441406 C 319.914062 531.546875 333.976562 542.964844 355.664062 547.976562 C 398.699219 557.921875 428.746094 538.429688 447.097656 516.792969 C 465.449219 495.160156 472.988281 471.148438 472.988281 471.148438 L 473.707031 468.867188 L 472.085938 467.105469 C 472.085938 467.105469 470.566406 465.453125 468.960938 463.320312 C 468.019531 462.070312 467.6875 461.214844 467.074219 460.070312 C 470.464844 460.78125 476.789062 463.003906 487.28125 468.246094 C 499.457031 474.332031 508.785156 475.457031 515.871094 472.503906 C 522.960938 469.554688 526.636719 462.882812 528.378906 456.230469 C 529.648438 451.371094 529.921875 446.464844 529.933594 441.925781 C 533.40625 446.136719 537.542969 450.84375 542.507812 455.386719 C 548.6875 461.046875 555.789062 466.269531 563.546875 469.011719 C 571.308594 471.753906 580.074219 471.761719 587.792969 466.660156 C 595.609375 461.496094 598.433594 453.0625 597.886719 444.800781 C 597.34375 436.535156 593.984375 428.050781 589.90625 420.214844 C 585.101562 410.980469 579.929688 403.707031 575.867188 398.394531 C 585.449219 398.414062 601.3125 397.5 618.285156 391.421875 C 644.460938 382.050781 671.851562 359.75 674.421875 312.394531 C 677.359375 258.207031 654.550781 232.15625 630.96875 220.949219 C 616.566406 214.105469 602.664062 212.667969 593.488281 212.457031 L 622.675781 181.6875 L 622.613281 179.957031 C 622.613281 179.957031 621.863281 157.167969 610.992188 134.976562 C 601.480469 115.558594 583.40625 96.332031 552.207031 94.074219 Z M 551.683594 102.261719 C 579.992188 104.101562 594.867188 120.835938 603.574219 138.609375 C 612.390625 156.613281 613.964844 174.546875 614.226562 178.589844 L 572.96875 222.082031 L 584.246094 220.796875 C 584.246094 220.796875 606.304688 218.378906 627.417969 228.410156 C 648.53125 238.445312 668.980469 260.128906 666.167969 311.949219 C 663.757812 356.355469 639.613281 375.007812 615.496094 383.644531 C 591.378906 392.28125 567.632812 389.964844 567.632812 389.964844 L 557.328125 388.929688 L 564.089844 396.769531 C 564.089844 396.769531 575 409.480469 582.574219 424.027344 C 586.359375 431.300781 589.222656 439.011719 589.640625 445.34375 C 590.058594 451.675781 588.582031 456.234375 583.234375 459.769531 C 577.792969 463.367188 572.390625 463.375 566.300781 461.222656 C 560.210938 459.070312 553.785156 454.507812 548.085938 449.292969 C 536.6875 438.863281 528.277344 426.148438 528.277344 426.148438 L 520.761719 429.15625 C 520.761719 429.15625 523.148438 443.578125 520.382812 454.140625 C 519 459.421875 516.652344 463.230469 512.695312 464.878906 C 508.738281 466.527344 502.003906 466.371094 490.976562 460.859375 C 479.210938 454.976562 472.078125 452.25 467.003906 451.515625 C 464.464844 451.148438 462.105469 451.101562 459.90625 452.746094 C 457.707031 454.386719 457.273438 457.40625 457.621094 459.277344 C 458.308594 463.023438 460.476562 465.796875 462.359375 468.292969 C 463.390625 469.664062 463.671875 469.917969 464.363281 470.714844 C 462.660156 475.5625 455.628906 493.960938 440.792969 511.449219 C 423.671875 531.636719 397.488281 549.164062 357.523438 539.929688 C 337.710938 535.347656 326.007812 525.582031 318.878906 513.296875 C 311.75 501.011719 309.359375 485.957031 309.519531 471.234375 C 309.761719 449.246094 315.640625 428.390625 318.605469 419.210938 C 319.75 416.015625 320.382812 414.023438 320.382812 414.023438 L 312.574219 411.332031 C 312.574219 411.332031 312.488281 411.582031 312.484375 411.589844 C 312.484375 411.589844 312.484375 411.59375 312.484375 411.59375 C 312.414062 411.777344 311.785156 413.445312 310.769531 416.570312 C 307.625 425.316406 300.085938 444.308594 288.234375 461.917969 C 280.230469 473.8125 270.304688 484.917969 258.855469 491.683594 C 247.402344 498.449219 234.628906 501.089844 219.507812 496.300781 C 206.117188 492.0625 200.40625 483.195312 198.371094 470.875 C 196.335938 458.550781 198.738281 442.945312 203.082031 427.789062 C 211.769531 397.46875 227.824219 369.113281 227.824219 369.113281 L 229.589844 366 L 226.757812 363.808594 C 221.640625 359.847656 208.113281 344.167969 195.640625 324.910156 C 183.167969 305.652344 171.246094 282.40625 167.121094 262.546875 C 165.058594 252.617188 164.964844 243.613281 167.320312 236.40625 C 169.679688 229.203125 174.253906 223.617188 182.691406 219.734375 C 199.558594 211.960938 232.707031 212.277344 288.65625 229.109375 L 294.105469 230.75 L 293.980469 225.0625 C 293.980469 225.0625 293.382812 197.300781 298.640625 169.785156 C 301.269531 156.027344 305.40625 142.386719 311.46875 132.582031 C 317.527344 122.777344 324.90625 116.996094 335.285156 116.996094 C 345.855469 116.996094 354.3125 122.296875 361.605469 130.957031 C 368.894531 139.621094 374.664062 151.574219 378.960938 163.640625 C 387.558594 187.777344 390.347656 212.109375 390.347656 212.109375 L 398.515625 212.398438 C 398.515625 212.398438 400.507812 201.84375 405.800781 191.253906 C 411.097656 180.667969 419.160156 170.886719 431.242188 170.351562 C 443.746094 169.796875 450.835938 176.824219 455.519531 184.597656 C 460.199219 192.375 461.699219 200.398438 461.699219 200.398438 L 469.855469 200.257812 C 469.855469 200.257812 473.347656 176.601562 483.925781 152.476562 C 489.214844 140.414062 496.265625 128.316406 505.304688 119.101562 C 514.34375 109.890625 525.203125 103.558594 538.710938 102.425781 C 543.324219 102.042969 547.640625 102 551.683594 102.261719 Z M 551.683594 102.261719 " fill-opacity="1" fill-rule="nonzero"/><path fill="#000000" d="M 255.023438 223.898438 C 255.023438 223.898438 194.371094 211.894531 182.984375 231.023438 C 171.597656 250.152344 183.378906 280.875 183.378906 280.875 C 183.378906 280.875 153.695312 204.90625 255.023438 223.898438 Z M 255.023438 223.898438 " fill-opacity="1" fill-rule="nonzero"/><path fill="#24211f" d="M 343.808594 262.460938 L 254.597656 173.6875 L 271.777344 262.515625 L 171.597656 250.152344 L 244.78125 325.097656 L 193.242188 349.324219 L 219.792969 367.242188 L 131.445312 478.574219 L 294.261719 430.039062 L 291.738281 484.285156 L 351.058594 443.601562 L 359.894531 485 L 419.847656 433.964844 L 496.523438 527.464844 L 509.777344 433.25 L 555.84375 496.417969 L 547.640625 421.472656 L 648.296875 452.878906 L 548.902344 327.972656 L 665.019531 143.46875 L 495.226562 227.460938 L 469.804688 148.707031 L 442.25 268.375 Z M 343.808594 262.460938 " fill-opacity="1" fill-rule="nonzero"/><path fill="#ffff21" d="M 343.808594 262.460938 L 257.597656 181.210938 L 276.386719 266.210938 L 179.128906 254.960938 L 250.96875 326.210938 L 203.441406 348.714844 L 226.652344 366.214844 L 145.972656 469.964844 L 302.914062 419.964844 L 298.492188 471.214844 L 357.070312 431.214844 L 362.597656 469.964844 L 421.175781 421.214844 L 493.015625 509.96875 L 505.171875 412.464844 L 549.382812 476.214844 L 537.222656 408.714844 L 634.484375 442.464844 L 537.222656 327.460938 L 648.851562 156.210938 L 495.226562 227.460938 L 469.804688 148.707031 L 424.488281 231.210938 L 401.28125 171.210938 Z M 343.808594 262.460938 " fill-opacity="1" fill-rule="nonzero"/><path fill="#000000" d="M 470.679688 145.523438 L 425.222656 228.289062 L 402.113281 168.546875 L 343.910156 260.964844 L 255.082031 177.242188 L 274.574219 265.429688 L 174.699219 253.878906 L 248.382812 326.957031 L 200.492188 349.628906 L 224.605469 367.808594 L 141.519531 474.648438 L 301.375 423.722656 L 296.859375 476.050781 L 356.171875 435.546875 L 361.746094 474.621094 L 421.378906 424.988281 L 494.710938 515.578125 L 506.808594 418.542969 L 548.378906 478.488281 L 551.578125 477.167969 L 539.957031 412.644531 L 640.460938 447.519531 L 539.878906 328.589844 L 654.15625 153.273438 L 496.746094 226.277344 Z M 469.832031 154.421875 L 494.605469 231.175781 L 644.453125 161.675781 L 535.472656 328.863281 L 629.414062 439.9375 L 535.394531 407.3125 L 546.648438 469.777344 L 504.441406 408.914062 L 492.222656 506.878906 L 421.875 419.972656 L 364.355469 467.839844 L 358.875 429.414062 L 301.03125 468.910156 L 305.359375 418.734375 L 151.324219 467.8125 L 229.605469 367.144531 L 207.296875 350.324219 L 254.460938 327.996094 L 184.457031 258.570312 L 279.105469 269.519531 L 261.023438 187.707031 L 344.613281 266.492188 L 345.757812 264.671875 L 401.355469 176.402344 L 424.664062 236.660156 Z M 469.832031 154.421875 " fill-opacity="1" fill-rule="nonzero"/><path fill="#46c0f8" d="M 164.636719 350.996094 C 164.636719 350.996094 157.21875 292.136719 211.9375 285.867188 C 260.464844 280.304688 268.804688 337.359375 268.804688 337.359375 C 268.804688 337.359375 276.039062 406.316406 223.667969 412.265625 C 168.285156 418.558594 164.636719 350.996094 164.636719 350.996094 Z M 164.636719 350.996094 " fill-opacity="1" fill-rule="nonzero"/><path fill="#ffff19" d="M 199.621094 351.222656 C 199.621094 351.222656 196.597656 326.828125 215.613281 324.640625 C 232.480469 322.699219 235.808594 346.355469 235.808594 346.355469 C 235.808594 346.355469 238.839844 374.925781 220.640625 377 C 201.390625 379.191406 199.621094 351.222656 199.621094 351.222656 Z M 199.621094 351.222656 " fill-opacity="1" fill-rule="nonzero"/><path fill="#46c0f8" d="M 288.078125 285.011719 C 288.078125 285.011719 280.222656 272.671875 268.441406 282.765625 C 256.660156 292.863281 267.878906 305.199219 267.878906 305.199219 L 269.484375 397.144531 C 269.484375 397.144531 270.125 409.234375 284.429688 409.234375 C 301.261719 409.234375 298.175781 395.214844 298.175781 395.214844 L 297.613281 362.125 C 297.613281 362.125 351.605469 364.230469 350.8125 316.246094 C 350.019531 268.261719 294.371094 277.171875 288.078125 285.011719 Z M 288.078125 285.011719 " fill-opacity="1" fill-rule="nonzero"/><path fill="#ffff22" d="M 301.359375 309.488281 L 301.855469 332.449219 C 301.855469 332.449219 319.042969 332.78125 318.875 319.398438 C 318.710938 306.019531 301.359375 309.488281 301.359375 309.488281 Z M 301.359375 309.488281 " fill-opacity="1" fill-rule="nonzero"/><path fill="#46c0f8" d="M 513.332031 277.425781 C 513.332031 277.425781 518.992188 280.804688 519.007812 289.316406 C 519.023438 297.824219 511.226562 299.117188 511.226562 299.117188 C 511.226562 299.117188 470.742188 285.738281 469.363281 304.589844 C 467.984375 323.445312 488.417969 322.144531 492 322.226562 C 495.582031 322.308594 525.867188 324.9375 529.765625 356.832031 C 533.660156 388.722656 494.207031 395.804688 486.070312 396.59375 C 477.933594 397.382812 451.359375 401.117188 448.441406 379.820312 C 445.3125 359.90625 471.769531 368.152344 477.847656 370.992188 C 485.082031 375.238281 500.378906 372.574219 500.410156 360.214844 C 500.441406 347.851562 476.246094 344.605469 476.246094 344.605469 C 476.246094 344.605469 441.214844 339.300781 439.796875 309.554688 C 438.378906 279.808594 478.898438 264.078125 513.332031 277.425781 Z M 513.332031 277.425781 " fill-opacity="1" fill-rule="nonzero"/><path fill="#46c0f8" d="M 377.9375 276 C 377.9375 276 371.546875 262.839844 358.6875 271.519531 C 345.824219 280.199219 355.558594 293.742188 355.558594 293.742188 L 346.613281 385.265625 C 346.613281 385.265625 345.859375 397.347656 360.074219 398.988281 C 376.792969 400.914062 375.335938 386.632812 375.335938 386.632812 L 378.570312 353.695312 C 378.570312 353.695312 431.964844 361.972656 436.679688 314.214844 C 441.390625 266.457031 385.085938 268.933594 377.9375 276 Z M 377.9375 276 " fill-opacity="1" fill-rule="nonzero"/><path fill="#ffff22" d="M 388.328125 301.839844 L 386.1875 324.703125 C 386.1875 324.703125 403.222656 327 404.589844 313.691406 C 405.960938 300.378906 388.328125 301.839844 388.328125 301.839844 Z M 388.328125 301.839844 " fill-opacity="1" fill-rule="nonzero"/><path fill="#46c0f8" d="M 566.261719 374.628906 C 566.453125 375.511719 566.558594 376.410156 566.578125 377.3125 C 566.59375 378.21875 566.523438 379.117188 566.363281 380.011719 C 566.203125 380.902344 565.957031 381.769531 565.628906 382.613281 C 565.296875 383.457031 564.886719 384.257812 564.398438 385.019531 C 563.90625 385.785156 563.347656 386.492188 562.722656 387.144531 C 562.09375 387.796875 561.40625 388.382812 560.664062 388.898438 C 559.917969 389.414062 559.132812 389.855469 558.300781 390.21875 C 557.472656 390.582031 556.613281 390.859375 555.726562 391.050781 C 554.84375 391.246094 553.945312 391.351562 553.042969 391.367188 C 552.136719 391.386719 551.234375 391.3125 550.34375 391.152344 C 549.453125 390.992188 548.585938 390.75 547.742188 390.417969 C 546.898438 390.085938 546.09375 389.675781 545.332031 389.1875 C 544.570312 388.699219 543.859375 388.140625 543.207031 387.511719 C 542.554688 386.882812 541.96875 386.199219 541.453125 385.457031 C 540.933594 384.710938 540.496094 383.925781 540.132812 383.09375 C 539.769531 382.265625 539.492188 381.40625 539.296875 380.523438 C 539.105469 379.636719 539 378.742188 538.984375 377.835938 C 538.964844 376.929688 539.035156 376.03125 539.195312 375.140625 C 539.355469 374.25 539.601562 373.382812 539.933594 372.539062 C 540.261719 371.695312 540.671875 370.890625 541.164062 370.128906 C 541.652344 369.367188 542.210938 368.660156 542.839844 368.007812 C 543.46875 367.355469 544.152344 366.769531 544.898438 366.253906 C 545.640625 365.734375 546.429688 365.296875 547.257812 364.933594 C 548.089844 364.570312 548.945312 364.292969 549.832031 364.097656 C 550.71875 363.90625 551.613281 363.800781 552.519531 363.785156 C 553.425781 363.765625 554.324219 363.835938 555.214844 363.996094 C 556.105469 364.15625 556.976562 364.402344 557.820312 364.734375 C 558.664062 365.0625 559.464844 365.472656 560.226562 365.960938 C 560.992188 366.453125 561.699219 367.011719 562.351562 367.636719 C 563.003906 368.265625 563.589844 368.953125 564.105469 369.695312 C 564.625 370.4375 565.066406 371.226562 565.425781 372.054688 C 565.789062 372.886719 566.066406 373.742188 566.261719 374.628906 Z M 566.261719 374.628906 " fill-opacity="1" fill-rule="evenodd"/><path fill="#46c0f8" d="M 565.957031 346.699219 C 566.101562 343.894531 574.390625 272.214844 574.390625 272.214844 C 574.390625 272.214844 575.144531 262.972656 562.503906 261.699219 C 549.863281 260.425781 546.332031 260.441406 546.332031 260.441406 C 546.332031 260.441406 538.046875 259.480469 538.90625 274.929688 C 539.761719 290.378906 543.917969 349.75 543.917969 349.75 C 543.917969 349.75 544.042969 359.558594 554.957031 358.6875 C 565.867188 357.816406 565.957031 346.699219 565.957031 346.699219 Z M 565.957031 346.699219 " fill-opacity="1" fill-rule="nonzero"/><path fill="#46c0f8" d="M 601.527344 377.996094 C 601.585938 378.898438 601.554688 379.800781 601.4375 380.699219 C 601.320312 381.597656 601.113281 382.472656 600.820312 383.332031 C 600.53125 384.1875 600.15625 385.007812 599.703125 385.792969 C 599.25 386.578125 598.726562 387.3125 598.128906 387.992188 C 597.53125 388.671875 596.871094 389.289062 596.152344 389.839844 C 595.433594 390.390625 594.667969 390.867188 593.855469 391.265625 C 593.042969 391.667969 592.199219 391.984375 591.320312 392.21875 C 590.445312 392.453125 589.558594 392.597656 588.652344 392.65625 C 587.75 392.714844 586.847656 392.6875 585.949219 392.566406 C 585.050781 392.449219 584.171875 392.242188 583.316406 391.953125 C 582.457031 391.660156 581.636719 391.289062 580.851562 390.835938 C 580.066406 390.382812 579.332031 389.855469 578.652344 389.257812 C 577.972656 388.660156 577.355469 388.003906 576.804688 387.285156 C 576.253906 386.566406 575.777344 385.800781 575.375 384.988281 C 574.976562 384.175781 574.660156 383.332031 574.425781 382.457031 C 574.191406 381.582031 574.042969 380.691406 573.984375 379.789062 C 573.925781 378.882812 573.957031 377.984375 574.074219 377.085938 C 574.195312 376.1875 574.398438 375.308594 574.691406 374.453125 C 574.980469 373.59375 575.355469 372.773438 575.808594 371.988281 C 576.261719 371.207031 576.785156 370.472656 577.382812 369.792969 C 577.980469 369.109375 578.640625 368.496094 579.359375 367.945312 C 580.078125 367.394531 580.84375 366.917969 581.65625 366.515625 C 582.46875 366.117188 583.3125 365.800781 584.191406 365.566406 C 585.066406 365.332031 585.953125 365.183594 586.859375 365.125 C 587.761719 365.066406 588.664062 365.097656 589.5625 365.214844 C 590.460938 365.335938 591.339844 365.539062 592.195312 365.832031 C 593.054688 366.121094 593.875 366.496094 594.660156 366.949219 C 595.445312 367.402344 596.179688 367.925781 596.859375 368.523438 C 597.539062 369.121094 598.15625 369.78125 598.707031 370.5 C 599.257812 371.21875 599.734375 371.984375 600.136719 372.796875 C 600.535156 373.609375 600.851562 374.453125 601.085938 375.328125 C 601.320312 376.203125 601.46875 377.089844 601.527344 377.996094 Z M 601.527344 377.996094 " fill-opacity="1" fill-rule="evenodd"/><path fill="#46c0f8" d="M 605.410156 350.335938 C 605.972656 347.582031 624.898438 277.953125 624.898438 277.953125 C 624.898438 277.953125 627.027344 268.925781 614.71875 265.777344 C 602.410156 262.625 598.921875 262.113281 598.921875 262.113281 C 598.921875 262.113281 590.871094 259.921875 589.40625 275.324219 C 587.941406 290.730469 583.160156 350.054688 583.160156 350.054688 C 583.160156 350.054688 581.816406 359.773438 592.734375 360.542969 C 603.65625 361.3125 605.410156 350.335938 605.410156 350.335938 Z M 605.410156 350.335938 " fill-opacity="1" fill-rule="nonzero"/><path fill="#000000" d="M 225.316406 280.109375 C 222.425781 279.980469 219.386719 280.082031 216.195312 280.449219 C 187.671875 283.71875 174.53125 301.3125 169.289062 317.605469 C 164.078125 333.808594 166.003906 348.941406 166.027344 349.113281 C 166.039062 349.308594 166.945312 366.511719 175.082031 383.238281 C 179.171875 391.648438 185.140625 400.007812 193.894531 405.875 C 202.648438 411.742188 214.164062 414.972656 228.664062 413.328125 C 242.46875 411.757812 252.683594 405.898438 259.851562 398.074219 C 267.015625 390.246094 271.199219 380.570312 273.660156 371.234375 C 278.578125 352.558594 276.675781 334.84375 276.675781 334.84375 L 276.675781 334.777344 L 276.664062 334.710938 C 276.664062 334.710938 274.542969 319.894531 265.996094 305.671875 C 258.523438 293.226562 245.554688 281.007812 225.320312 280.109375 Z M 225.089844 286.589844 C 243.027344 287.261719 253.613281 297.726562 260.402344 309.027344 C 268.128906 321.890625 270.175781 335.472656 270.191406 335.585938 C 270.203125 335.679688 271.894531 352.335938 267.351562 369.574219 C 265.074219 378.21875 261.246094 386.898438 255.039062 393.671875 C 248.835938 400.449219 240.3125 405.441406 227.929688 406.847656 C 214.738281 408.347656 205.03125 405.492188 197.523438 400.460938 C 190.015625 395.429688 184.6875 388.078125 180.945312 380.386719 C 173.457031 364.996094 172.519531 348.640625 172.519531 348.640625 L 172.515625 348.523438 L 172.5 348.40625 C 172.5 348.40625 170.769531 334.300781 175.5 319.601562 C 180.226562 304.898438 190.742188 289.925781 216.941406 286.925781 C 219.8125 286.59375 222.527344 286.492188 225.089844 286.589844 Z M 225.089844 286.589844 " fill-opacity="1" fill-rule="nonzero"/><path fill="#000000" d="M 223.496094 318.847656 C 222.320312 318.757812 221.097656 318.78125 219.835938 318.925781 C 214.324219 319.558594 210.027344 321.953125 207.105469 325.125 C 204.179688 328.300781 202.574219 332.117188 201.664062 335.695312 C 199.863281 342.773438 200.691406 349.25 200.710938 349.390625 C 200.722656 349.582031 201.160156 356.828125 204.261719 364.140625 C 205.835938 367.847656 208.109375 371.652344 211.628906 374.488281 C 215.152344 377.324219 220.007812 379 225.671875 378.355469 C 231.148438 377.734375 235.390625 374.914062 238.144531 371.324219 C 240.894531 367.730469 242.335938 363.472656 243.164062 359.4375 C 244.820312 351.367188 243.976562 343.800781 243.976562 343.800781 L 243.960938 343.683594 C 243.960938 343.683594 243.101562 337.28125 239.824219 330.953125 C 238.183594 327.792969 235.910156 324.550781 232.601562 322.15625 C 230.121094 320.355469 227.019531 319.109375 223.496094 318.847656 Z M 220.652344 325.996094 C 224.035156 325.605469 226.363281 326.421875 228.421875 327.917969 C 230.484375 329.410156 232.203125 331.71875 233.503906 334.230469 C 236.082031 339.203125 236.882812 344.523438 236.898438 344.617188 C 236.910156 344.71875 237.558594 351.328125 236.191406 358.007812 C 235.5 361.375 234.285156 364.648438 232.488281 366.992188 C 230.691406 369.339844 228.488281 370.871094 224.863281 371.285156 C 220.90625 371.734375 218.324219 370.738281 216.097656 368.945312 C 213.875 367.15625 212.09375 364.378906 210.816406 361.367188 C 208.265625 355.34375 207.800781 348.816406 207.800781 348.816406 L 207.796875 348.714844 L 207.78125 348.605469 C 207.78125 348.605469 207.144531 343.042969 208.566406 337.449219 C 209.277344 334.65625 210.484375 331.964844 212.339844 329.949219 C 214.199219 327.933594 216.65625 326.457031 220.652344 325.996094 Z M 220.652344 325.996094 " fill-opacity="1" fill-rule="nonzero"/><path fill="#000000" d="M 308.398438 303.890625 C 306.570312 304.027344 305.382812 304.28125 305.382812 304.28125 L 302.84375 304.789062 L 302.898438 307.378906 L 303.460938 333.304688 L 306.425781 333.359375 C 306.425781 333.359375 311.191406 333.496094 316.136719 331.660156 C 318.605469 330.738281 321.21875 329.300781 323.261719 326.917969 C 325.304688 324.535156 326.644531 321.1875 326.59375 317.183594 C 326.546875 313.167969 325.066406 309.898438 322.820312 307.78125 C 320.574219 305.664062 317.800781 304.683594 315.246094 304.210938 C 312.691406 303.738281 310.226562 303.757812 308.398438 303.890625 Z M 309.140625 310.070312 C 310.554688 309.980469 312.367188 309.960938 314.121094 310.285156 C 315.925781 310.621094 317.523438 311.28125 318.574219 312.273438 C 319.628906 313.269531 320.382812 314.582031 320.414062 317.257812 C 320.449219 319.941406 319.699219 321.574219 318.566406 322.894531 C 317.4375 324.210938 315.785156 325.195312 313.980469 325.867188 C 312.386719 326.460938 310.835938 326.710938 309.503906 326.890625 Z M 309.140625 310.070312 " fill-opacity="1" fill-rule="nonzero"/><path fill="#000000" d="M 371.765625 263.261719 C 368.648438 263.242188 365.125 264.1875 361.492188 266.640625 C 354.09375 271.632812 352.742188 278.992188 353.722656 284.300781 C 354.480469 288.402344 356.03125 291.03125 356.839844 292.289062 L 347.988281 382.828125 L 347.988281 382.882812 C 347.988281 382.882812 347.730469 386.730469 349.71875 390.773438 C 351.710938 394.8125 356.3125 399.121094 364.332031 400.046875 C 373.589844 401.113281 379.25 397.195312 381.5 392.851562 C 383.75 388.511719 383.210938 384.125 383.210938 384.125 L 383.210938 384.773438 L 386.136719 354.96875 C 390.109375 355.402344 399.5 356.148438 411.367188 352.824219 C 426.113281 348.699219 442.074219 337.449219 444.550781 312.355469 C 445.792969 299.789062 442.980469 290.042969 437.742188 282.984375 C 432.503906 275.921875 425.023438 271.636719 417.351562 269.253906 C 409.679688 266.871094 401.765625 266.335938 395.171875 266.84375 C 391.875 267.097656 388.914062 267.613281 386.417969 268.347656 C 385.355469 268.660156 384.421875 269.015625 383.527344 269.410156 C 382.574219 268.191406 381.328125 266.824219 379.609375 265.640625 C 377.59375 264.253906 374.882812 263.277344 371.765625 263.261719 Z M 371.734375 269.5 C 373.433594 269.507812 374.726562 270.195312 375.914062 271.011719 C 378.289062 272.644531 379.632812 275.242188 379.632812 275.242188 L 381.621094 279.335938 L 384.859375 276.136719 C 385.023438 275.972656 386.320312 275.171875 388.253906 274.601562 C 390.1875 274.035156 392.761719 273.570312 395.675781 273.34375 C 401.5 272.894531 408.707031 273.394531 415.417969 275.480469 C 422.125 277.566406 428.285156 281.175781 432.5 286.863281 C 436.71875 292.550781 439.179688 300.40625 438.0625 311.714844 C 435.828125 334.382812 422.734375 342.875 409.605469 346.546875 C 396.476562 350.222656 383.699219 348.296875 383.699219 348.296875 L 380.292969 347.769531 L 376.6875 384.460938 L 376.71875 384.785156 C 376.71875 384.785156 376.910156 387.535156 375.707031 389.851562 C 374.507812 392.171875 372.535156 394.429688 365.074219 393.566406 C 358.882812 392.855469 356.753906 390.304688 355.566406 387.890625 C 354.382812 385.488281 354.496094 383.300781 354.496094 383.292969 C 354.496094 383.292969 354.496094 383.289062 354.496094 383.289062 L 363.550781 290.65625 L 362.832031 289.660156 C 362.832031 289.660156 360.804688 286.75 360.132812 283.113281 C 359.460938 279.480469 359.675781 275.730469 365.140625 272.042969 C 367.933594 270.15625 370.035156 269.488281 371.734375 269.5 Z M 371.734375 269.5 " fill-opacity="1" fill-rule="nonzero"/><path fill="#000000" d="M 315.050781 272.902344 C 311.242188 272.96875 307.617188 273.378906 304.34375 274.015625 C 301.070312 274.652344 298.160156 275.507812 295.726562 276.539062 C 294.808594 276.929688 294.019531 277.355469 293.230469 277.796875 C 292.144531 276.726562 290.808594 275.582031 289.042969 274.648438 C 284.59375 272.285156 277.421875 271.972656 270.65625 277.769531 C 263.753906 283.683594 263.207031 291.40625 264.824219 296.675781 C 266.03125 300.613281 267.800781 303.019531 268.816406 304.28125 L 270.40625 395.097656 L 270.40625 395.160156 C 270.40625 395.160156 270.589844 399.128906 273.097656 403.019531 C 275.605469 406.910156 280.855469 410.765625 289.054688 410.765625 C 298.5 410.765625 303.914062 406.078125 305.707031 401.363281 C 307.5 396.644531 306.421875 392.238281 306.421875 392.238281 L 306.507812 392.972656 L 306.007812 363.464844 C 310.347656 363.410156 319.410156 362.980469 330.539062 358.433594 C 344.820312 352.601562 359.566406 339.386719 359.144531 314.007812 C 358.933594 301.292969 354.984375 291.804688 348.890625 285.304688 C 342.796875 278.800781 334.78125 275.371094 326.820312 273.871094 C 322.835938 273.117188 318.851562 272.835938 315.042969 272.902344 Z M 281.496094 280.207031 C 283.085938 280.035156 284.355469 280.558594 285.566406 281.199219 C 287.988281 282.484375 289.574219 284.820312 289.574219 284.820312 L 292.355469 289.191406 L 295.597656 285.152344 C 295.65625 285.082031 296.804688 284.140625 298.621094 283.371094 C 300.441406 282.601562 302.917969 281.851562 305.761719 281.296875 C 311.445312 280.195312 318.613281 279.871094 325.449219 281.160156 C 332.285156 282.449219 338.71875 285.296875 343.480469 290.375 C 348.242188 295.457031 351.542969 302.851562 351.730469 314.128906 C 352.105469 336.730469 340.25 346.457031 327.734375 351.566406 C 315.222656 356.675781 302.386719 356.238281 302.386719 356.238281 L 298.46875 356.085938 L 299.101562 393.46875 L 299.179688 393.832031 C 299.179688 393.832031 299.648438 396.433594 298.773438 398.726562 C 297.902344 401.019531 296.445312 403.34375 289.058594 403.34375 C 282.953125 403.34375 280.730469 401.152344 279.339844 399 C 277.964844 396.863281 277.824219 394.816406 277.824219 394.789062 L 276.195312 301.558594 L 275.253906 300.527344 C 275.253906 300.527344 272.96875 297.925781 271.917969 294.503906 C 270.867188 291.082031 270.601562 287.585938 275.484375 283.402344 C 277.992188 281.253906 279.90625 280.382812 281.496094 280.207031 Z M 281.496094 280.207031 " fill-opacity="1" fill-rule="nonzero"/><path fill="#000000" d="M 395.742188 296.539062 C 393.910156 296.464844 392.703125 296.582031 392.703125 296.582031 L 390.117188 296.792969 L 389.875 299.371094 L 387.460938 325.191406 L 390.402344 325.585938 C 390.402344 325.585938 395.121094 326.269531 400.242188 325.011719 C 402.800781 324.382812 405.5625 323.246094 407.867188 321.113281 C 410.167969 318.984375 411.882812 315.8125 412.292969 311.828125 C 412.703125 307.835938 411.609375 304.417969 409.621094 302.054688 C 407.632812 299.691406 404.988281 298.402344 402.507812 297.640625 C 400.023438 296.878906 397.570312 296.613281 395.742188 296.539062 Z M 395.769531 302.761719 C 397.1875 302.832031 398.988281 303.023438 400.695312 303.546875 C 402.449219 304.085938 403.957031 304.925781 404.890625 306.03125 C 405.824219 307.140625 406.417969 308.53125 406.144531 311.195312 C 405.871094 313.863281 404.941406 315.398438 403.664062 316.578125 C 402.390625 317.761719 400.632812 318.550781 398.765625 319.007812 C 397.113281 319.414062 395.542969 319.488281 394.203125 319.511719 Z M 395.769531 302.761719 " fill-opacity="1" fill-rule="nonzero"/><path fill="#000000" d="M 553.902344 359.371094 C 545.078125 361.300781 539.449219 370.082031 541.378906 378.898438 C 543.308594 387.71875 552.089844 393.351562 560.914062 391.421875 C 569.734375 389.492188 575.367188 380.710938 573.4375 371.890625 C 571.507812 363.070312 562.726562 357.445312 553.902344 359.375 Z M 555.015625 364.46875 C 561.085938 363.140625 567.015625 366.941406 568.34375 373.003906 C 569.667969 379.070312 565.867188 385 559.796875 386.328125 C 553.730469 387.652344 547.800781 383.851562 546.476562 377.785156 C 545.148438 371.71875 548.949219 365.792969 555.015625 364.46875 Z M 555.015625 364.46875 " fill-opacity="1" fill-rule="evenodd"/><path fill="#000000" d="M 551.21875 255.675781 C 551.148438 255.667969 547.9375 255.402344 545.222656 257.738281 C 542.480469 260.097656 540.472656 264.707031 540.929688 272.894531 C 541.789062 288.441406 545.945312 347.753906 545.945312 347.753906 L 545.945312 347.605469 C 545.945312 347.605469 545.945312 350.6875 547.738281 353.703125 C 549.535156 356.71875 553.566406 359.605469 559.796875 359.109375 C 566.128906 358.601562 569.871094 354.78125 571.535156 351.316406 C 573.199219 347.847656 573.203125 344.542969 573.203125 344.542969 L 573.203125 344.652344 C 573.203125 344.660156 573.355469 343.015625 573.59375 340.792969 C 573.832031 338.570312 574.167969 335.542969 574.566406 331.988281 C 575.363281 324.878906 576.414062 315.65625 577.460938 306.523438 C 579.550781 288.253906 581.621094 270.335938 581.621094 270.335938 L 581.621094 270.246094 C 581.621094 270.246094 581.875 267.140625 580.09375 263.976562 C 578.308594 260.8125 574.347656 257.625 567.394531 256.925781 C 554.914062 255.667969 551.34375 255.675781 551.222656 255.675781 Z M 550.660156 260.855469 L 550.816406 260.871094 L 550.972656 260.871094 C 550.972656 260.871094 554.277344 260.847656 566.871094 262.117188 C 572.558594 262.6875 574.542969 264.757812 575.542969 266.535156 C 576.539062 268.300781 576.421875 269.792969 576.421875 269.8125 C 576.410156 269.886719 574.351562 287.695312 572.265625 305.933594 C 571.21875 315.066406 570.171875 324.289062 569.371094 331.410156 C 568.972656 334.96875 568.636719 338 568.398438 340.234375 C 568.15625 342.46875 568.015625 343.679688 567.980469 344.386719 L 567.980469 344.5 C 567.980469 344.5 567.9375 346.75 566.828125 349.0625 C 565.71875 351.371094 563.957031 353.546875 559.378906 353.910156 C 554.699219 354.285156 553.214844 352.707031 552.21875 351.035156 C 551.222656 349.363281 551.15625 347.539062 551.15625 347.539062 L 551.15625 347.390625 C 551.15625 347.390625 546.996094 287.960938 546.144531 272.605469 C 545.742188 265.34375 547.449219 262.710938 548.632812 261.691406 C 549.816406 260.671875 550.667969 260.855469 550.667969 260.855469 Z M 550.660156 260.855469 " fill-opacity="1" fill-rule="nonzero"/><path fill="#000000" d="M 591.320312 360.34375 C 582.304688 360.929688 575.421875 368.769531 576.007812 377.78125 C 576.597656 386.789062 584.4375 393.667969 593.453125 393.082031 C 602.464844 392.492188 609.34375 384.65625 608.757812 375.648438 C 608.171875 366.640625 600.332031 359.757812 591.320312 360.34375 Z M 591.65625 365.546875 C 597.855469 365.144531 603.148438 369.789062 603.550781 375.988281 C 603.957031 382.183594 599.3125 387.472656 593.113281 387.875 C 586.914062 388.28125 581.621094 383.636719 581.214844 377.441406 C 580.8125 371.246094 585.460938 365.953125 591.65625 365.546875 Z M 591.65625 365.546875 " fill-opacity="1" fill-rule="evenodd"/><path fill="#000000" d="M 602.242188 257.265625 C 601.058594 257.308594 599.488281 257.59375 597.953125 258.554688 C 594.886719 260.480469 592.214844 264.738281 591.4375 272.898438 C 589.960938 288.398438 585.1875 347.667969 585.1875 347.667969 L 585.203125 347.519531 C 585.203125 347.519531 584.742188 350.5625 586.066406 353.8125 C 587.390625 357.0625 590.945312 360.523438 597.179688 360.964844 C 603.515625 361.410156 607.789062 358.195312 609.953125 355.015625 C 612.117188 351.835938 612.613281 348.566406 612.613281 348.566406 L 612.59375 348.675781 C 612.59375 348.683594 612.988281 347.078125 613.558594 344.917969 C 614.128906 342.757812 614.914062 339.816406 615.839844 336.359375 C 617.691406 329.449219 620.113281 320.488281 622.511719 311.613281 C 627.316406 293.863281 632.046875 276.457031 632.046875 276.457031 L 632.070312 276.371094 C 632.070312 276.371094 632.785156 273.335938 631.496094 269.941406 C 630.207031 266.546875 626.769531 262.800781 620 261.070312 C 607.84375 257.960938 604.308594 257.433594 604.191406 257.417969 C 604.15625 257.40625 603.40625 257.222656 602.246094 257.265625 Z M 602.292969 262.398438 C 602.660156 262.375 602.863281 262.449219 602.863281 262.449219 L 603.011719 262.492188 L 603.167969 262.515625 C 603.167969 262.515625 606.441406 262.984375 618.703125 266.121094 C 624.242188 267.539062 625.894531 269.886719 626.617188 271.792969 C 627.339844 273.699219 626.988281 275.175781 626.988281 275.175781 C 626.964844 275.257812 622.269531 292.542969 617.476562 310.253906 C 615.074219 319.128906 612.65625 328.089844 610.800781 335.007812 C 609.871094 338.46875 609.085938 341.417969 608.511719 343.589844 C 607.941406 345.765625 607.621094 346.9375 607.480469 347.632812 L 607.46875 347.691406 L 607.457031 347.742188 C 607.457031 347.742188 607.078125 349.964844 605.636719 352.082031 C 604.191406 354.199219 602.125 356.085938 597.546875 355.761719 C 592.863281 355.429688 591.628906 353.648438 590.894531 351.847656 C 590.160156 350.046875 590.371094 348.230469 590.371094 348.230469 L 590.382812 348.160156 L 590.382812 348.085938 C 590.382812 348.085938 595.167969 288.699219 596.625 273.394531 C 597.3125 266.148438 599.398438 263.804688 600.722656 262.972656 C 601.382812 262.558594 601.917969 262.425781 602.285156 262.398438 Z M 602.292969 262.398438 " fill-opacity="1" fill-rule="nonzero"/><path fill="#24211f" d="M 503.199219 147.933594 C 503.199219 147.933594 518.242188 102.824219 553.863281 111.136719 C 589.488281 119.445312 604.527344 158.21875 604.527344 158.21875 C 604.527344 158.21875 549.113281 71.171875 503.199219 147.933594 Z M 503.199219 147.933594 " fill-opacity="1" fill-rule="nonzero"/><path fill="#000000" d="M 307.648438 176.332031 C 307.648438 176.332031 314.925781 120.378906 339.554688 125.132812 C 364.183594 129.890625 374.820312 160.945312 374.820312 160.945312 C 374.820312 160.945312 328.078125 88.484375 307.648438 176.332031 Z M 307.648438 176.332031 " fill-opacity="1" fill-rule="nonzero"/><path fill="#ffff21" d="M 235.585938 153.636719 L 226.148438 147.335938 L 215.605469 151.539062 L 218.683594 140.617188 L 211.429688 131.894531 L 222.769531 131.445312 L 228.828125 121.855469 L 232.757812 132.496094 L 243.757812 135.292969 L 234.847656 142.316406 Z M 235.585938 153.636719 " fill-opacity="1" fill-rule="evenodd"/><path fill="#ffff21" d="M 610.574219 547.601562 L 605.167969 537.628906 L 593.882812 536.429688 L 601.699219 528.207031 L 599.355469 517.105469 L 609.59375 521.996094 L 619.429688 516.339844 L 617.941406 527.585938 L 626.363281 535.1875 L 615.203125 537.246094 Z M 610.574219 547.601562 " fill-opacity="1" fill-rule="evenodd"/><path fill="#ffff21" d="M 426.925781 134.90625 L 417.746094 117.976562 L 398.59375 115.9375 L 411.863281 101.980469 L 407.882812 83.144531 L 425.261719 91.445312 L 441.957031 81.839844 L 439.429688 100.929688 L 453.726562 113.832031 L 434.785156 117.324219 Z M 426.925781 134.90625 " fill-opacity="1" fill-rule="evenodd"/><path fill="#ffff21" d="M 258.457031 525.007812 L 250.429688 522.285156 L 243.636719 527.351562 L 243.746094 518.878906 L 236.824219 513.988281 L 244.917969 511.472656 L 247.433594 503.382812 L 252.328125 510.300781 L 260.804688 510.191406 L 255.734375 516.980469 Z M 258.457031 525.007812 " fill-opacity="1" fill-rule="evenodd"/><path fill="#ffff21" d="M 136.03125 523.609375 L 124.027344 515.597656 L 110.617188 520.941406 L 114.53125 507.050781 L 105.304688 495.953125 L 119.730469 495.382812 L 127.4375 483.183594 L 132.4375 496.71875 L 146.425781 500.273438 L 135.09375 509.210938 Z M 136.03125 523.609375 " fill-opacity="1" fill-rule="evenodd"/><path fill="#ffff21" d="M 638.074219 92.867188 L 631.710938 88.617188 L 624.601562 91.449219 L 626.675781 84.085938 L 621.78125 78.199219 L 629.429688 77.898438 L 633.519531 71.429688 L 636.167969 78.605469 L 643.585938 80.492188 L 637.578125 85.230469 Z M 638.074219 92.867188 " fill-opacity="1" fill-rule="evenodd"/><path fill="#ffff21" d="M 518.964844 560.472656 L 508.753906 557.011719 L 500.113281 563.457031 L 500.253906 552.683594 L 491.453125 546.460938 L 501.746094 543.261719 L 504.945312 532.972656 L 511.167969 541.769531 L 521.949219 541.632812 L 515.5 550.265625 Z M 518.964844 560.472656 " fill-opacity="1" fill-rule="evenodd"/><path fill="#000000" d="M 446.46875 485.769531 C 446.46875 485.769531 420.160156 540.605469 373.140625 531.652344 C 326.121094 522.699219 322.203125 479.613281 322.203125 479.613281 C 322.203125 479.613281 377.617188 573.617188 446.46875 485.769531 Z M 446.46875 485.769531 " fill-opacity="1" fill-rule="nonzero"/><path fill="#000000" d="M 491.726562 267.175781 C 482.707031 267.242188 474.050781 268.972656 466.484375 272.148438 C 451.359375 278.496094 440.386719 291.15625 441.167969 307.53125 C 441.9375 323.671875 452.0625 333.519531 461.578125 338.894531 C 471.097656 344.265625 480.386719 345.648438 480.386719 345.648438 L 480.414062 345.65625 L 480.441406 345.65625 C 480.441406 345.65625 486.1875 346.449219 491.785156 348.632812 C 494.582031 349.722656 497.285156 351.171875 499.09375 352.800781 C 500.898438 354.433594 501.785156 356 501.78125 358.027344 C 501.769531 362.863281 499.179688 365.226562 495.367188 366.578125 C 491.554688 367.933594 486.621094 367.46875 484.125 366.003906 L 483.996094 365.925781 L 483.859375 365.863281 C 480.269531 364.183594 472.15625 361.355469 464.285156 361.4375 C 460.347656 361.476562 456.296875 362.261719 453.269531 365.074219 C 450.246094 367.882812 448.964844 372.492188 449.84375 378.121094 C 450.671875 384.097656 453.304688 388.699219 456.894531 391.816406 C 460.492188 394.941406 464.894531 396.613281 469.277344 397.503906 C 478.039062 399.28125 487.09375 398.039062 491.011719 397.660156 C 495.507812 397.222656 507.609375 395.261719 518.660156 389.035156 C 529.707031 382.8125 539.742188 371.546875 537.628906 354.257812 C 535.558594 337.3125 526.144531 327.589844 516.957031 322.5625 C 507.769531 317.535156 499.082031 316.84375 496.699219 316.789062 C 494.375 316.738281 489.136719 316.941406 484.605469 315.222656 C 482.339844 314.363281 480.425781 313.105469 479.113281 311.238281 C 477.800781 309.371094 476.941406 306.785156 477.242188 302.652344 C 477.5 299.125 478.992188 297.800781 482.191406 296.679688 C 485.394531 295.558594 490.230469 295.382812 495.128906 295.851562 C 504.925781 296.792969 514.828125 300.035156 514.828125 300.035156 L 515.59375 300.289062 L 516.390625 300.15625 C 516.390625 300.15625 519.054688 299.730469 521.644531 297.882812 C 524.234375 296.039062 526.90625 292.382812 526.898438 287.132812 C 526.878906 277.175781 519.632812 272.449219 519.632812 272.449219 L 519.398438 272.308594 L 519.140625 272.210938 C 510.128906 268.714844 500.746094 267.113281 491.726562 267.175781 Z M 491.761719 273.726562 C 499.871094 273.667969 508.34375 275.101562 516.449219 278.195312 C 516.746094 278.351562 520.363281 280.351562 520.375 287.140625 C 520.375 290.398438 519.164062 291.644531 517.859375 292.574219 C 516.777344 293.34375 516.082031 293.453125 515.761719 293.527344 C 514.203125 293.027344 505.613281 290.308594 495.753906 289.359375 C 490.359375 288.84375 484.816406 288.855469 480.039062 290.527344 C 475.257812 292.199219 471.171875 296.277344 470.738281 302.175781 C 470.351562 307.46875 471.53125 311.789062 473.773438 314.984375 C 476.015625 318.175781 479.175781 320.132812 482.292969 321.316406 C 488.527344 323.679688 495.296875 323.277344 496.554688 323.308594 C 497.753906 323.335938 506.003906 324 513.828125 328.28125 C 521.652344 332.5625 529.328125 340.101562 531.15625 355.046875 C 532.941406 369.652344 525.195312 377.871094 515.457031 383.355469 C 505.71875 388.84375 494.023438 390.816406 490.382812 391.167969 C 486.160156 391.578125 477.863281 392.597656 470.574219 391.117188 C 466.929688 390.375 463.636719 389.035156 461.175781 386.894531 C 458.714844 384.757812 456.9375 381.851562 456.300781 377.195312 L 456.300781 377.132812 C 455.621094 372.816406 456.472656 371.003906 457.71875 369.851562 C 458.960938 368.695312 461.316406 367.984375 464.363281 367.953125 C 470.457031 367.890625 478.613281 370.601562 481.105469 371.765625 L 480.839844 371.625 C 485.578125 374.40625 491.90625 374.730469 497.5625 372.722656 C 503.214844 370.714844 508.292969 365.566406 508.3125 358.042969 C 508.324219 353.890625 506.191406 350.417969 503.472656 347.960938 C 500.75 345.507812 497.410156 343.824219 494.164062 342.558594 C 487.667969 340.027344 481.320312 339.195312 481.320312 339.195312 L 481.375 339.207031 C 481.375 339.207031 473.148438 337.933594 464.796875 333.21875 C 456.441406 328.503906 448.339844 320.828125 447.691406 307.222656 C 447.054688 293.851562 455.632812 283.777344 469.019531 278.15625 C 475.714844 275.347656 483.554688 273.789062 491.769531 273.730469 Z M 491.761719 273.726562 " fill-opacity="1" fill-rule="nonzero"/><path fill="#000000" d="M 226.820312 118.734375 L 219.347656 130.574219 L 205.351562 131.128906 L 214.304688 141.894531 L 210.503906 155.371094 L 223.515625 150.1875 L 235.164062 157.960938 L 234.929688 154.382812 L 234.25 143.992188 L 245.246094 135.320312 L 231.671875 131.871094 Z M 225.988281 126.691406 L 228.996094 134.84375 L 237.417969 136.984375 L 230.597656 142.363281 L 231.160156 151.03125 L 223.933594 146.207031 L 215.863281 149.425781 L 218.214844 141.0625 L 212.664062 134.382812 L 221.34375 134.039062 Z M 225.988281 126.691406 " fill-opacity="1" fill-rule="evenodd"/><path fill="#000000" d="M 619.234375 513.875 L 607.09375 520.859375 L 594.457031 514.824219 L 597.351562 528.519531 L 587.703125 538.667969 L 601.632812 540.152344 L 608.304688 552.460938 L 609.769531 549.183594 L 614.019531 539.675781 L 627.792969 537.136719 L 617.394531 527.753906 Z M 614.78125 520.523438 L 613.640625 529.132812 L 620.089844 534.957031 L 611.546875 536.535156 L 608 544.464844 L 603.855469 536.828125 L 595.214844 535.90625 L 601.203125 529.609375 L 599.40625 521.109375 L 607.25 524.855469 Z M 614.78125 520.523438 " fill-opacity="1" fill-rule="evenodd"/><path fill="#000000" d="M 443.3125 77.058594 L 422.707031 88.914062 L 401.261719 78.667969 L 406.171875 101.917969 L 389.796875 119.140625 L 413.433594 121.65625 L 424.761719 142.546875 L 427.246094 136.988281 L 434.460938 120.851562 L 457.839844 116.539062 L 440.191406 100.617188 Z M 435.753906 88.34375 L 433.820312 102.960938 L 444.769531 112.839844 L 430.261719 115.515625 L 424.242188 128.984375 L 417.214844 116.015625 L 402.542969 114.457031 L 412.707031 103.765625 L 409.65625 89.335938 L 422.96875 95.695312 Z M 435.753906 88.34375 " fill-opacity="1" fill-rule="evenodd"/><path fill="#000000" d="M 244.386719 500.289062 L 241.082031 510.917969 L 230.449219 514.222656 L 239.539062 520.648438 L 239.398438 531.777344 L 248.320312 525.121094 L 258.863281 528.695312 L 257.710938 525.300781 L 255.289062 518.15625 L 261.945312 509.234375 L 250.8125 509.378906 Z M 245.636719 508.191406 L 248.996094 512.941406 L 254.816406 512.867188 L 251.335938 517.527344 L 253.207031 523.039062 L 247.695312 521.171875 L 243.03125 524.648438 L 243.105469 518.832031 L 238.351562 515.472656 L 243.910156 513.746094 Z M 245.636719 508.191406 " fill-opacity="1" fill-rule="evenodd"/><path fill="#24211f" d="M 129.328125 479.746094 L 120.207031 494.191406 L 103.125 494.871094 L 114.050781 508.007812 L 109.417969 524.453125 L 125.292969 518.125 L 139.507812 527.617188 L 139.273438 524.035156 L 138.394531 510.566406 L 151.816406 499.984375 L 135.25 495.773438 Z M 128.492188 487.699219 L 132.574219 498.746094 L 143.988281 501.648438 L 134.742188 508.9375 L 135.507812 520.6875 L 125.710938 514.152344 L 114.773438 518.507812 L 117.964844 507.175781 L 110.433594 498.121094 L 122.203125 497.65625 Z M 128.492188 487.699219 " fill-opacity="1" fill-rule="evenodd"/><path fill="#000000" d="M 631.511719 68.308594 L 626.007812 77.027344 L 615.703125 77.433594 L 622.292969 85.363281 L 619.5 95.28125 L 629.078125 91.464844 L 637.652344 97.1875 L 637.421875 93.609375 L 636.984375 86.902344 L 645.078125 80.519531 L 635.085938 77.976562 Z M 630.675781 76.265625 L 632.40625 80.953125 L 637.246094 82.183594 L 633.324219 85.277344 L 633.652344 90.261719 L 629.496094 87.488281 L 624.855469 89.335938 L 626.210938 84.527344 L 623.015625 80.6875 L 628.007812 80.492188 Z M 630.675781 76.265625 " fill-opacity="1" fill-rule="evenodd"/><path fill="#000000" d="M 501.898438 529.878906 L 497.90625 542.707031 L 485.074219 546.695312 L 496.046875 554.449219 L 495.875 567.882812 L 506.644531 559.847656 L 519.371094 564.160156 L 518.21875 560.761719 L 515.054688 551.441406 L 523.09375 540.675781 L 509.65625 540.847656 Z M 503.148438 537.78125 L 507.839844 544.410156 L 515.960938 544.308594 L 511.101562 550.816406 L 513.710938 558.503906 L 506.019531 555.894531 L 499.507812 560.75 L 499.613281 552.632812 L 492.980469 547.945312 L 500.738281 545.535156 Z M 503.148438 537.78125 " fill-opacity="1" fill-rule="evenodd"/></svg>