<svg xmlns="http://www.w3.org/2000/svg" xmlns:xlink="http://www.w3.org/1999/xlink" width="133" zoomAndPan="magnify" viewBox="0 0 99.75 89.249998" height="119" preserveAspectRatio="xMidYMid meet" version="1.0"><defs><clipPath id="e7b53c3036"><path d="M 0.292969 0 L 99.210938 0 L 99.210938 88.507812 L 0.292969 88.507812 Z M 0.292969 0 " clip-rule="nonzero"/></clipPath></defs><g clip-path="url(#e7b53c3036)"><path fill="#ffbd59" d="M 78.304688 5.242188 C 77.808594 4.480469 77.226562 3.785156 76.566406 3.15625 C 75.902344 2.53125 75.175781 1.988281 74.386719 1.535156 C 73.597656 1.078125 72.765625 0.722656 71.890625 0.460938 C 71.015625 0.203125 70.125 0.046875 69.214844 0 L 30.230469 0 C 29.320312 0.046875 28.429688 0.203125 27.554688 0.460938 C 26.679688 0.722656 25.847656 1.078125 25.058594 1.535156 C 24.269531 1.988281 23.542969 2.53125 22.882812 3.15625 C 22.21875 3.785156 21.640625 4.480469 21.140625 5.242188 L 1.675781 38.984375 C 1.265625 39.800781 0.953125 40.652344 0.742188 41.542969 C 0.527344 42.433594 0.421875 43.339844 0.421875 44.253906 C 0.421875 45.167969 0.527344 46.070312 0.742188 46.960938 C 0.953125 47.851562 1.265625 48.707031 1.675781 49.523438 L 21.140625 83.265625 C 21.640625 84.027344 22.21875 84.722656 22.882812 85.351562 C 23.542969 85.976562 24.269531 86.519531 25.058594 86.972656 C 25.847656 87.429688 26.679688 87.785156 27.554688 88.046875 C 28.429688 88.304688 29.320312 88.457031 30.230469 88.507812 L 69.214844 88.507812 C 70.125 88.457031 71.019531 88.304688 71.890625 88.046875 C 72.765625 87.785156 73.597656 87.429688 74.386719 86.972656 C 75.175781 86.519531 75.902344 85.976562 76.566406 85.351562 C 77.226562 84.722656 77.808594 84.027344 78.304688 83.265625 L 97.824219 49.523438 C 98.238281 48.707031 98.550781 47.851562 98.761719 46.960938 C 98.972656 46.070312 99.082031 45.167969 99.082031 44.253906 C 99.082031 43.339844 98.972656 42.433594 98.761719 41.542969 C 98.550781 40.652344 98.238281 39.800781 97.824219 38.984375 Z M 76.242188 79.699219 C 75.742188 80.460938 75.164062 81.15625 74.5 81.785156 C 73.839844 82.410156 73.113281 82.953125 72.324219 83.40625 C 71.535156 83.863281 70.703125 84.21875 69.828125 84.480469 C 68.953125 84.738281 68.0625 84.890625 67.152344 84.941406 L 32.351562 84.941406 C 31.441406 84.890625 30.546875 84.738281 29.675781 84.480469 C 28.800781 84.21875 27.96875 83.863281 27.179688 83.40625 C 26.386719 82.953125 25.664062 82.410156 25 81.785156 C 24.339844 81.15625 23.757812 80.460938 23.261719 79.699219 L 5.859375 49.582031 C 5.445312 48.765625 5.136719 47.910156 4.921875 47.019531 C 4.710938 46.128906 4.605469 45.226562 4.605469 44.3125 C 4.605469 43.398438 4.710938 42.492188 4.921875 41.601562 C 5.136719 40.710938 5.445312 39.859375 5.859375 39.042969 L 23.261719 8.925781 C 23.757812 8.164062 24.339844 7.46875 25 6.839844 C 25.664062 6.214844 26.386719 5.671875 27.179688 5.21875 C 27.96875 4.761719 28.800781 4.402344 29.675781 4.144531 C 30.546875 3.886719 31.441406 3.730469 32.351562 3.683594 L 67.152344 3.683594 C 68.0625 3.730469 68.953125 3.886719 69.828125 4.144531 C 70.703125 4.402344 71.535156 4.761719 72.324219 5.21875 C 73.113281 5.671875 73.839844 6.214844 74.5 6.839844 C 75.164062 7.46875 75.742188 8.164062 76.242188 8.925781 L 93.640625 39.042969 C 94.054688 39.859375 94.367188 40.710938 94.578125 41.601562 C 94.792969 42.492188 94.898438 43.398438 94.898438 44.3125 C 94.898438 45.226562 94.792969 46.128906 94.578125 47.019531 C 94.367188 47.910156 94.054688 48.765625 93.640625 49.582031 Z M 76.242188 79.699219 " fill-opacity="1" fill-rule="nonzero"/></g><path fill="#ffbd59" d="M 66.402344 84.0625 L 33.101562 84.0625 C 32.15625 84.011719 31.230469 83.851562 30.324219 83.582031 C 29.417969 83.3125 28.554688 82.945312 27.738281 82.472656 C 26.917969 82 26.164062 81.4375 25.476562 80.789062 C 24.792969 80.140625 24.1875 79.417969 23.671875 78.628906 L 6.964844 49.71875 C 6.535156 48.871094 6.210938 47.988281 5.992188 47.0625 C 5.769531 46.140625 5.660156 45.203125 5.660156 44.257812 C 5.660156 43.304688 5.769531 42.371094 5.992188 41.445312 C 6.210938 40.523438 6.535156 39.640625 6.964844 38.792969 L 23.617188 9.941406 C 24.132812 9.148438 24.734375 8.429688 25.421875 7.78125 C 26.105469 7.128906 26.859375 6.570312 27.679688 6.097656 C 28.496094 5.625 29.359375 5.253906 30.265625 4.984375 C 31.171875 4.714844 32.09375 4.558594 33.039062 4.503906 L 66.34375 4.503906 C 67.285156 4.554688 68.210938 4.714844 69.117188 4.984375 C 70.023438 5.253906 70.886719 5.625 71.703125 6.097656 C 72.523438 6.570312 73.277344 7.128906 73.964844 7.78125 C 74.652344 8.429688 75.253906 9.148438 75.769531 9.941406 L 92.476562 38.847656 C 92.90625 39.695312 93.230469 40.582031 93.453125 41.503906 C 93.671875 42.425781 93.78125 43.363281 93.78125 44.3125 C 93.78125 45.261719 93.671875 46.199219 93.453125 47.121094 C 93.230469 48.042969 92.90625 48.929688 92.476562 49.777344 L 75.828125 78.628906 C 75.308594 79.417969 74.707031 80.140625 74.019531 80.789062 C 73.335938 81.4375 72.582031 82 71.761719 82.472656 C 70.945312 82.941406 70.082031 83.3125 69.175781 83.582031 C 68.269531 83.851562 67.347656 84.011719 66.402344 84.0625 Z M 36.492188 12.726562 C 35.742188 12.769531 35.007812 12.894531 34.289062 13.109375 C 33.570312 13.324219 32.886719 13.617188 32.238281 13.992188 C 31.589844 14.363281 30.992188 14.808594 30.445312 15.324219 C 29.902344 15.839844 29.425781 16.410156 29.015625 17.039062 L 15.804688 39.925781 C 15.464844 40.597656 15.207031 41.300781 15.035156 42.035156 C 14.859375 42.765625 14.773438 43.507812 14.773438 44.261719 C 14.773438 45.015625 14.859375 45.757812 15.035156 46.488281 C 15.207031 47.222656 15.464844 47.921875 15.804688 48.59375 L 29.058594 71.527344 C 29.46875 72.15625 29.949219 72.726562 30.492188 73.242188 C 31.039062 73.757812 31.636719 74.203125 32.285156 74.578125 C 32.933594 74.949219 33.617188 75.246094 34.335938 75.457031 C 35.054688 75.671875 35.789062 75.800781 36.535156 75.839844 L 62.953125 75.839844 C 63.703125 75.800781 64.4375 75.671875 65.15625 75.457031 C 65.875 75.246094 66.558594 74.949219 67.207031 74.578125 C 67.855469 74.203125 68.453125 73.757812 69 73.242188 C 69.542969 72.726562 70.019531 72.15625 70.429688 71.527344 L 83.640625 48.640625 C 83.980469 47.96875 84.238281 47.265625 84.410156 46.535156 C 84.585938 45.804688 84.675781 45.058594 84.675781 44.308594 C 84.675781 43.554688 84.585938 42.8125 84.410156 42.078125 C 84.238281 41.347656 83.980469 40.644531 83.640625 39.972656 L 70.386719 17.039062 C 69.976562 16.410156 69.5 15.839844 68.953125 15.324219 C 68.410156 14.808594 67.8125 14.363281 67.164062 13.992188 C 66.511719 13.617188 65.828125 13.320312 65.109375 13.109375 C 64.390625 12.894531 63.65625 12.769531 62.910156 12.726562 Z M 36.492188 12.726562 " fill-opacity="1" fill-rule="nonzero"/></svg>